<svg width="50" height="50" viewBox="0 0 50 50" fill="none" xmlns="http://www.w3.org/2000/svg">
  <path
    d="M12.4998 37.4998C15.4961 37.0549 18.2326 35.5476 20.2099 33.2529C22.1872 30.9581 23.2735 28.0289 23.2707 24.9998C23.2857 21.1974 24.6651 17.5267 27.1579 14.6554C29.6508 11.7841 33.0914 9.90287 36.854 9.35399L42.2498 8.58315C42.104 8.41649 41.979 8.24982 41.8123 8.08315C35.0207 1.29149 21.979 3.33315 12.6457 12.6248C4.74984 20.6248 2.08317 31.2498 5.74984 38.4581L12.4998 37.4998Z"
    fill="#DDDDDD" />
  <path
    d="M26.5205 25.0002C26.5069 28.8019 25.1312 32.4728 22.6429 35.3471C20.1546 38.2215 16.7186 40.1088 12.958 40.6668L7.83301 41.396L8.14551 41.7502C14.9372 48.5418 27.9788 46.521 37.3122 37.2293C45.1663 29.396 47.9163 18.7502 44.2705 11.646L37.3122 12.646C34.335 13.0785 31.6107 14.5616 29.6316 16.8273C27.6524 19.093 26.5489 21.9919 26.5205 25.0002Z"
    fill="#DDDDDD" />
</svg>