<svg width="74" height="74" viewBox="0 0 74 74" fill="#a3a3a3" xmlns="http://www.w3.org/2000/svg">
  <path
    d="M11.2665 2.1335L36.9998 27.8668L62.5998 2.26683C63.1653 1.66495 63.8465 1.18346 64.6025 0.851244C65.3586 0.519028 66.174 0.342925 66.9998 0.333496C68.7679 0.333496 70.4636 1.03587 71.7138 2.28612C72.9641 3.53636 73.6665 5.23205 73.6665 7.00016C73.682 7.81751 73.5304 8.62941 73.2208 9.38604C72.9113 10.1427 72.4504 10.8281 71.8665 11.4002L45.9331 37.0002L71.8665 62.9335C72.9652 64.0084 73.6095 65.4641 73.6665 67.0002C73.6665 68.7683 72.9641 70.464 71.7138 71.7142C70.4636 72.9645 68.7679 73.6668 66.9998 73.6668C66.1502 73.7021 65.3025 73.5603 64.5106 73.2504C63.7187 72.9405 62.9999 72.4694 62.3998 71.8668L36.9998 46.1335L11.3331 71.8002C10.7698 72.382 10.0969 72.8465 9.35313 73.1669C8.60938 73.4873 7.80955 73.6572 6.99978 73.6668C5.23167 73.6668 3.53598 72.9645 2.28574 71.7142C1.03549 70.464 0.333116 68.7683 0.333116 67.0002C0.317573 66.1828 0.469219 65.3709 0.778749 64.6143C1.08828 63.8577 1.54916 63.1723 2.13312 62.6002L28.0664 37.0002L2.13312 11.0668C1.03435 9.99189 0.390047 8.53624 0.333116 7.00016C0.333116 5.23205 1.03549 3.53636 2.28574 2.28612C3.53598 1.03587 5.23167 0.333496 6.99978 0.333496C8.59978 0.353496 10.1331 1.00016 11.2665 2.1335Z"
    fill="" />
</svg>