<svg width="302" height="363" viewBox="0 0 302 363" fill="none" xmlns="http://www.w3.org/2000/svg">
  <path fill-rule="evenodd" clip-rule="evenodd"
    d="M148.474 336.305C140.02 338.155 131.238 339.129 122.229 339.129C54.7239 339.129 0 284.406 0 216.9C0 149.395 54.7239 94.6709 122.229 94.6709C189.735 94.6709 244.459 149.395 244.459 216.9C244.459 219.943 244.347 222.96 244.129 225.948L192.559 237.755C194.516 231.145 195.567 224.145 195.567 216.9C195.567 176.397 162.732 143.563 122.229 143.563C81.7261 143.563 48.8917 176.397 48.8917 216.9C48.8917 257.403 81.7261 290.238 122.229 290.238C127.487 290.238 132.615 289.684 137.559 288.633L148.474 336.305Z"
    fill="#EA4335" />
  <rect width="49.0133" height="214.12" fill="#FBBC05" />
  <rect x="191.535" y="192.374" width="50.5189" height="170.627" fill="#4285F4" />
  <path
    d="M243.856 229.124C244.255 225.104 244.459 221.026 244.459 216.901C244.459 149.396 189.736 94.6719 122.23 94.6719C94.7137 94.6719 69.321 103.764 48.8926 119.109V213.479C48.8926 213.842 48.9049 214.202 48.9293 214.559C50.1661 175.14 82.5106 143.564 122.23 143.564C162.733 143.564 195.568 176.398 195.568 216.901C195.568 221.066 195.221 225.149 194.554 229.124H243.856Z"
    fill="#34A853" />
  <rect x="130.542" y="192.456" width="171.121" height="48.8917" fill="#4285F4" />
  <path fill-rule="evenodd" clip-rule="evenodd"
    d="M76.0219 159.949L48.8936 119.631V213.478C48.8936 213.675 48.8972 213.872 48.9044 214.067L48.9484 214.038C49.7862 192.214 60.1602 172.835 76.0219 159.949Z"
    fill="#FBBC05" />
</svg>